<mxfile host="app.diagrams.net" modified="2022-09-05T08:39:22.448Z" agent="5.0 (Macintosh; Intel Mac OS X 10_15_7) AppleWebKit/537.36 (KHTML, like Gecko) Chrome/103.0.0.0 Safari/537.36" etag="iIfw23mUtg5Lxz4z0UY0" version="20.2.6" type="github">
  <diagram id="C5RBs43oDa-KdzZeNtuy" name="Page-1">
    <mxGraphModel dx="1815" dy="992" grid="1" gridSize="10" guides="1" tooltips="1" connect="1" arrows="1" fold="1" page="1" pageScale="1" pageWidth="827" pageHeight="1169" math="0" shadow="0">
      <root>
        <mxCell id="WIyWlLk6GJQsqaUBKTNV-0" />
        <mxCell id="WIyWlLk6GJQsqaUBKTNV-1" parent="WIyWlLk6GJQsqaUBKTNV-0" />
        <mxCell id="Apn9uFFV4f-r-xTo7Fue-14" value="" style="edgeStyle=orthogonalEdgeStyle;rounded=0;orthogonalLoop=1;jettySize=auto;html=1;" edge="1" parent="WIyWlLk6GJQsqaUBKTNV-1" source="WIyWlLk6GJQsqaUBKTNV-3" target="Apn9uFFV4f-r-xTo7Fue-0">
          <mxGeometry relative="1" as="geometry" />
        </mxCell>
        <mxCell id="WIyWlLk6GJQsqaUBKTNV-3" value="计算历史2个月内全部sku的浏览和销量" style="rounded=1;whiteSpace=wrap;html=1;fontSize=12;glass=0;strokeWidth=1;shadow=0;" parent="WIyWlLk6GJQsqaUBKTNV-1" vertex="1">
          <mxGeometry x="160" y="30" width="120" height="40" as="geometry" />
        </mxCell>
        <mxCell id="Apn9uFFV4f-r-xTo7Fue-10" style="edgeStyle=orthogonalEdgeStyle;rounded=0;orthogonalLoop=1;jettySize=auto;html=1;exitX=0.5;exitY=1;exitDx=0;exitDy=0;" edge="1" parent="WIyWlLk6GJQsqaUBKTNV-1" source="Apn9uFFV4f-r-xTo7Fue-0" target="Apn9uFFV4f-r-xTo7Fue-2">
          <mxGeometry relative="1" as="geometry" />
        </mxCell>
        <mxCell id="Apn9uFFV4f-r-xTo7Fue-0" value="从m03宽表中海获取昨日有效的sku的基本信息" style="rounded=1;whiteSpace=wrap;html=1;" vertex="1" parent="WIyWlLk6GJQsqaUBKTNV-1">
          <mxGeometry x="150" y="120" width="140" height="60" as="geometry" />
        </mxCell>
        <mxCell id="Apn9uFFV4f-r-xTo7Fue-2" value="获取历史20天全部sku的曝光和点击，计算ctr" style="rounded=1;whiteSpace=wrap;html=1;" vertex="1" parent="WIyWlLk6GJQsqaUBKTNV-1">
          <mxGeometry x="150" y="210" width="140" height="50" as="geometry" />
        </mxCell>
        <mxCell id="Apn9uFFV4f-r-xTo7Fue-3" value="拼接广告主信息（pin、店铺、bid、brand、cid）" style="rounded=1;whiteSpace=wrap;html=1;" vertex="1" parent="WIyWlLk6GJQsqaUBKTNV-1">
          <mxGeometry x="150" y="300" width="140" height="50" as="geometry" />
        </mxCell>
        <mxCell id="Apn9uFFV4f-r-xTo7Fue-16" value="获取全部特殊sku属性集合（全球购、自营、&lt;b&gt;&lt;font color=&quot;#ff3333&quot;&gt;新增O2O门店&lt;/font&gt;&lt;/b&gt;）" style="rounded=1;whiteSpace=wrap;html=1;" vertex="1" parent="WIyWlLk6GJQsqaUBKTNV-1">
          <mxGeometry x="125" y="380" width="190" height="60" as="geometry" />
        </mxCell>
        <mxCell id="Apn9uFFV4f-r-xTo7Fue-19" value="&lt;font color=&quot;#000000&quot;&gt;按照sku的信息，拼接不同的选品key&lt;/font&gt;" style="rounded=1;whiteSpace=wrap;html=1;fontColor=#FF3333;" vertex="1" parent="WIyWlLk6GJQsqaUBKTNV-1">
          <mxGeometry x="160" y="480" width="120" height="60" as="geometry" />
        </mxCell>
        <mxCell id="Apn9uFFV4f-r-xTo7Fue-21" value="" style="endArrow=classic;html=1;rounded=0;fontColor=#FF3333;exitX=0.5;exitY=1;exitDx=0;exitDy=0;" edge="1" parent="WIyWlLk6GJQsqaUBKTNV-1" source="Apn9uFFV4f-r-xTo7Fue-3" target="Apn9uFFV4f-r-xTo7Fue-16">
          <mxGeometry width="50" height="50" relative="1" as="geometry">
            <mxPoint x="220" y="370" as="sourcePoint" />
            <mxPoint x="440" y="510" as="targetPoint" />
          </mxGeometry>
        </mxCell>
        <mxCell id="Apn9uFFV4f-r-xTo7Fue-22" value="" style="endArrow=classic;html=1;rounded=0;fontColor=#FF3333;exitX=0.5;exitY=1;exitDx=0;exitDy=0;entryX=0.5;entryY=0;entryDx=0;entryDy=0;" edge="1" parent="WIyWlLk6GJQsqaUBKTNV-1" source="Apn9uFFV4f-r-xTo7Fue-2" target="Apn9uFFV4f-r-xTo7Fue-3">
          <mxGeometry width="50" height="50" relative="1" as="geometry">
            <mxPoint x="390" y="560" as="sourcePoint" />
            <mxPoint x="440" y="510" as="targetPoint" />
          </mxGeometry>
        </mxCell>
        <mxCell id="Apn9uFFV4f-r-xTo7Fue-23" value="" style="endArrow=classic;html=1;rounded=0;fontColor=#FF3333;exitX=0.5;exitY=1;exitDx=0;exitDy=0;entryX=0.5;entryY=0;entryDx=0;entryDy=0;" edge="1" parent="WIyWlLk6GJQsqaUBKTNV-1" source="Apn9uFFV4f-r-xTo7Fue-16" target="Apn9uFFV4f-r-xTo7Fue-19">
          <mxGeometry width="50" height="50" relative="1" as="geometry">
            <mxPoint x="390" y="560" as="sourcePoint" />
            <mxPoint x="440" y="510" as="targetPoint" />
          </mxGeometry>
        </mxCell>
        <mxCell id="Apn9uFFV4f-r-xTo7Fue-25" value="拼接采销sku的信息，生成采销key" style="rounded=1;whiteSpace=wrap;html=1;fontColor=#000000;" vertex="1" parent="WIyWlLk6GJQsqaUBKTNV-1">
          <mxGeometry x="160" y="580" width="120" height="60" as="geometry" />
        </mxCell>
        <mxCell id="Apn9uFFV4f-r-xTo7Fue-26" value="" style="endArrow=classic;html=1;rounded=0;fontColor=#000000;exitX=0.5;exitY=1;exitDx=0;exitDy=0;entryX=0.5;entryY=0;entryDx=0;entryDy=0;" edge="1" parent="WIyWlLk6GJQsqaUBKTNV-1" source="Apn9uFFV4f-r-xTo7Fue-19" target="Apn9uFFV4f-r-xTo7Fue-25">
          <mxGeometry width="50" height="50" relative="1" as="geometry">
            <mxPoint x="390" y="550" as="sourcePoint" />
            <mxPoint x="440" y="500" as="targetPoint" />
          </mxGeometry>
        </mxCell>
        <mxCell id="Apn9uFFV4f-r-xTo7Fue-27" value="非采销sku部分，将生成的key拼接的浏览、点击、新品等标识，&lt;font color=&quot;#ff3333&quot;&gt;&lt;b&gt;新增字段判断是否为门店商品&lt;/b&gt;&lt;/font&gt;" style="rounded=1;whiteSpace=wrap;html=1;fontColor=#000000;" vertex="1" parent="WIyWlLk6GJQsqaUBKTNV-1">
          <mxGeometry x="450" y="580" width="180" height="60" as="geometry" />
        </mxCell>
        <mxCell id="Apn9uFFV4f-r-xTo7Fue-28" value="" style="endArrow=classic;html=1;rounded=0;fontColor=#000000;exitX=1;exitY=0.5;exitDx=0;exitDy=0;entryX=0;entryY=0.5;entryDx=0;entryDy=0;" edge="1" parent="WIyWlLk6GJQsqaUBKTNV-1" source="Apn9uFFV4f-r-xTo7Fue-25" target="Apn9uFFV4f-r-xTo7Fue-27">
          <mxGeometry width="50" height="50" relative="1" as="geometry">
            <mxPoint x="390" y="550" as="sourcePoint" />
            <mxPoint x="440" y="500" as="targetPoint" />
          </mxGeometry>
        </mxCell>
        <mxCell id="Apn9uFFV4f-r-xTo7Fue-29" value="" style="endArrow=classic;html=1;rounded=0;fontColor=#FF3333;exitX=0.5;exitY=0;exitDx=0;exitDy=0;" edge="1" parent="WIyWlLk6GJQsqaUBKTNV-1" source="Apn9uFFV4f-r-xTo7Fue-27" target="Apn9uFFV4f-r-xTo7Fue-30">
          <mxGeometry width="50" height="50" relative="1" as="geometry">
            <mxPoint x="390" y="520" as="sourcePoint" />
            <mxPoint x="440" y="470" as="targetPoint" />
          </mxGeometry>
        </mxCell>
        <mxCell id="Apn9uFFV4f-r-xTo7Fue-30" value="&lt;font color=&quot;#000000&quot;&gt;单独处理采销部分，拼接sku的浏览、点击、新品等标识&lt;/font&gt;" style="rounded=1;whiteSpace=wrap;html=1;fontColor=#FF3333;" vertex="1" parent="WIyWlLk6GJQsqaUBKTNV-1">
          <mxGeometry x="480" y="500" width="120" height="60" as="geometry" />
        </mxCell>
        <mxCell id="Apn9uFFV4f-r-xTo7Fue-32" value="将采销部分和sku部分merge，&lt;b style=&quot;color: rgb(255, 51, 51);&quot;&gt;新增字段判断是否为门店商品&lt;/b&gt;" style="rounded=1;whiteSpace=wrap;html=1;fontColor=#000000;" vertex="1" parent="WIyWlLk6GJQsqaUBKTNV-1">
          <mxGeometry x="480" y="420" width="120" height="50" as="geometry" />
        </mxCell>
        <mxCell id="Apn9uFFV4f-r-xTo7Fue-33" value="" style="endArrow=classic;html=1;rounded=0;fontColor=#000000;exitX=0.5;exitY=0;exitDx=0;exitDy=0;entryX=0.5;entryY=1;entryDx=0;entryDy=0;" edge="1" parent="WIyWlLk6GJQsqaUBKTNV-1" source="Apn9uFFV4f-r-xTo7Fue-30" target="Apn9uFFV4f-r-xTo7Fue-32">
          <mxGeometry width="50" height="50" relative="1" as="geometry">
            <mxPoint x="390" y="500" as="sourcePoint" />
            <mxPoint x="440" y="450" as="targetPoint" />
          </mxGeometry>
        </mxCell>
        <mxCell id="Apn9uFFV4f-r-xTo7Fue-34" value="线性回归计算每个广告主截断的数目" style="rounded=1;whiteSpace=wrap;html=1;fontColor=#000000;" vertex="1" parent="WIyWlLk6GJQsqaUBKTNV-1">
          <mxGeometry x="480" y="340" width="120" height="50" as="geometry" />
        </mxCell>
        <mxCell id="Apn9uFFV4f-r-xTo7Fue-35" value="" style="endArrow=classic;html=1;rounded=0;fontColor=#000000;exitX=0.5;exitY=0;exitDx=0;exitDy=0;entryX=0.5;entryY=1;entryDx=0;entryDy=0;" edge="1" parent="WIyWlLk6GJQsqaUBKTNV-1" source="Apn9uFFV4f-r-xTo7Fue-32" target="Apn9uFFV4f-r-xTo7Fue-34">
          <mxGeometry width="50" height="50" relative="1" as="geometry">
            <mxPoint x="390" y="490" as="sourcePoint" />
            <mxPoint x="440" y="440" as="targetPoint" />
          </mxGeometry>
        </mxCell>
        <mxCell id="Apn9uFFV4f-r-xTo7Fue-36" value="根据截断数目生成key到sku list的映射，&lt;font color=&quot;#ff3333&quot;&gt;&lt;b&gt;对于pop和品牌商新增key类型O2O&lt;/b&gt;&lt;/font&gt;" style="rounded=1;whiteSpace=wrap;html=1;fontColor=#000000;" vertex="1" parent="WIyWlLk6GJQsqaUBKTNV-1">
          <mxGeometry x="455" y="250" width="170" height="60" as="geometry" />
        </mxCell>
        <mxCell id="Apn9uFFV4f-r-xTo7Fue-37" value="" style="endArrow=classic;html=1;rounded=0;fontColor=#000000;exitX=0.5;exitY=0;exitDx=0;exitDy=0;entryX=0.5;entryY=1;entryDx=0;entryDy=0;" edge="1" parent="WIyWlLk6GJQsqaUBKTNV-1" source="Apn9uFFV4f-r-xTo7Fue-34" target="Apn9uFFV4f-r-xTo7Fue-36">
          <mxGeometry width="50" height="50" relative="1" as="geometry">
            <mxPoint x="390" y="480" as="sourcePoint" />
            <mxPoint x="440" y="430" as="targetPoint" />
          </mxGeometry>
        </mxCell>
        <mxCell id="Apn9uFFV4f-r-xTo7Fue-38" value="&lt;font color=&quot;#000000&quot;&gt;特殊处理白名单部分，&lt;/font&gt;新增&lt;b&gt;对于pop和品牌商新增key类型O2O&lt;/b&gt;" style="rounded=1;whiteSpace=wrap;html=1;fontColor=#FF3333;" vertex="1" parent="WIyWlLk6GJQsqaUBKTNV-1">
          <mxGeometry x="470" y="170" width="140" height="60" as="geometry" />
        </mxCell>
        <mxCell id="Apn9uFFV4f-r-xTo7Fue-39" value="" style="endArrow=classic;html=1;rounded=0;fontColor=#FF3333;exitX=0.5;exitY=0;exitDx=0;exitDy=0;entryX=0.5;entryY=1;entryDx=0;entryDy=0;" edge="1" parent="WIyWlLk6GJQsqaUBKTNV-1" source="Apn9uFFV4f-r-xTo7Fue-36" target="Apn9uFFV4f-r-xTo7Fue-38">
          <mxGeometry width="50" height="50" relative="1" as="geometry">
            <mxPoint x="390" y="460" as="sourcePoint" />
            <mxPoint x="440" y="410" as="targetPoint" />
          </mxGeometry>
        </mxCell>
        <mxCell id="Apn9uFFV4f-r-xTo7Fue-40" value="normguard，选出的sku和key的check，&lt;font color=&quot;#ff0000&quot;&gt;&lt;b&gt;新增O2O类型的key候选&lt;/b&gt;&lt;/font&gt;" style="rounded=1;whiteSpace=wrap;html=1;fontColor=#000000;" vertex="1" parent="WIyWlLk6GJQsqaUBKTNV-1">
          <mxGeometry x="480" y="90" width="120" height="60" as="geometry" />
        </mxCell>
        <mxCell id="Apn9uFFV4f-r-xTo7Fue-41" value="" style="endArrow=classic;html=1;rounded=0;fontColor=#000000;exitX=0.5;exitY=0;exitDx=0;exitDy=0;entryX=0.5;entryY=1;entryDx=0;entryDy=0;" edge="1" parent="WIyWlLk6GJQsqaUBKTNV-1" source="Apn9uFFV4f-r-xTo7Fue-38" target="Apn9uFFV4f-r-xTo7Fue-40">
          <mxGeometry width="50" height="50" relative="1" as="geometry">
            <mxPoint x="390" y="440" as="sourcePoint" />
            <mxPoint x="440" y="390" as="targetPoint" />
          </mxGeometry>
        </mxCell>
        <mxCell id="Apn9uFFV4f-r-xTo7Fue-43" value="&lt;font color=&quot;#000000&quot;&gt;上传结果到jimdb&lt;/font&gt;" style="rounded=1;whiteSpace=wrap;html=1;fontColor=#FF0000;" vertex="1" parent="WIyWlLk6GJQsqaUBKTNV-1">
          <mxGeometry x="480" y="40" width="120" height="30" as="geometry" />
        </mxCell>
        <mxCell id="Apn9uFFV4f-r-xTo7Fue-44" value="" style="endArrow=classic;html=1;rounded=0;fontColor=#000000;exitX=0.5;exitY=0;exitDx=0;exitDy=0;entryX=0.5;entryY=1;entryDx=0;entryDy=0;" edge="1" parent="WIyWlLk6GJQsqaUBKTNV-1" source="Apn9uFFV4f-r-xTo7Fue-40" target="Apn9uFFV4f-r-xTo7Fue-43">
          <mxGeometry width="50" height="50" relative="1" as="geometry">
            <mxPoint x="390" y="430" as="sourcePoint" />
            <mxPoint x="440" y="380" as="targetPoint" />
          </mxGeometry>
        </mxCell>
      </root>
    </mxGraphModel>
  </diagram>
</mxfile>
